<?xml version="1.0" encoding="UTF-8"?>
<svg xmlns="http://www.w3.org/2000/svg" xmlns:xlink="http://www.w3.org/1999/xlink" width="48px" height="48px" viewBox="0 0 48 48" version="1.1">
<g id="surface1">
<path style=" stroke:none;fill-rule:nonzero;fill:rgb(96.078431%,3.921569%,3.921569%);fill-opacity:1;" d="M 13.472656 13.777344 C 12.863281 14.507812 13.472656 15.425781 17.203125 19.289062 L 21.609375 23.878906 L 17.203125 28.472656 C 13.472656 32.324219 12.863281 33.238281 13.472656 33.980469 C 13.898438 34.472656 14.390625 34.898438 14.507812 34.898438 C 14.695312 34.898438 16.832031 32.933594 19.339844 30.492188 L 23.878906 26.136719 L 28.472656 30.558594 C 32.324219 34.289062 33.238281 34.898438 33.980469 34.289062 C 34.472656 33.863281 34.898438 33.371094 34.898438 33.238281 C 34.898438 33.066406 32.933594 30.917969 30.492188 28.40625 L 26.136719 23.878906 L 30.492188 19.339844 C 32.933594 16.832031 34.898438 14.695312 34.898438 14.507812 C 34.898438 14.390625 34.472656 13.898438 33.980469 13.472656 C 33.238281 12.863281 32.324219 13.472656 28.472656 17.203125 L 23.878906 21.609375 L 19.339844 17.269531 C 16.832031 14.8125 14.695312 12.863281 14.507812 12.863281 C 14.390625 12.863281 13.898438 13.289062 13.472656 13.777344 Z M 13.472656 13.777344 "/>
</g>
</svg>
