<?xml version="1.0" encoding="UTF-8"?>
<svg xmlns="http://www.w3.org/2000/svg" xmlns:xlink="http://www.w3.org/1999/xlink" width="24px" height="24px" viewBox="0 0 24 24" version="1.1">
<g id="surface1">
<path style=" stroke:none;fill-rule:nonzero;fill:rgb(0%,0%,0%);fill-opacity:1;" d="M 11.195312 1.332031 C 10.410156 1.402344 9.769531 1.542969 9.144531 1.773438 C 8.855469 1.878906 8.386719 2.105469 8.113281 2.273438 C 7.496094 2.652344 6.890625 3.214844 6.46875 3.804688 C 5.832031 4.695312 5.425781 5.792969 5.230469 7.148438 C 5.207031 7.300781 5.195312 7.433594 5.199219 7.441406 C 5.207031 7.449219 5.289062 7.503906 5.382812 7.566406 L 5.550781 7.667969 L 6.8125 7.820312 C 7.503906 7.902344 8.097656 7.972656 8.128906 7.972656 L 8.183594 7.976562 L 8.234375 7.695312 C 8.546875 6 9.207031 4.960938 10.324219 4.398438 C 10.824219 4.148438 11.363281 4.03125 12.011719 4.03125 C 12.921875 4.03125 13.699219 4.292969 14.363281 4.832031 C 14.683594 5.089844 15.03125 5.488281 15.242188 5.839844 C 15.6875 6.574219 15.808594 7.539062 15.550781 8.324219 C 15.476562 8.550781 15.292969 8.902344 15.148438 9.09375 C 14.835938 9.507812 14.363281 9.992188 13.613281 10.660156 C 12.496094 11.652344 11.992188 12.183594 11.597656 12.769531 C 10.832031 13.898438 10.523438 15.136719 10.570312 16.898438 L 10.582031 17.363281 L 11.878906 17.359375 L 13.171875 17.351562 L 13.175781 17.15625 C 13.1875 16.589844 13.246094 15.824219 13.304688 15.476562 C 13.410156 14.847656 13.660156 14.285156 14.042969 13.808594 C 14.21875 13.589844 14.886719 12.933594 15.476562 12.402344 C 17.191406 10.863281 17.9375 9.941406 18.34375 8.875 C 18.761719 7.777344 18.785156 6.464844 18.402344 5.308594 C 18.121094 4.460938 17.589844 3.660156 16.871094 3.003906 C 15.851562 2.066406 14.644531 1.550781 13.039062 1.359375 C 12.738281 1.320312 11.488281 1.304688 11.195312 1.332031 Z M 11.195312 1.332031 "/>
<path style=" stroke:none;fill-rule:nonzero;fill:rgb(0%,0%,0%);fill-opacity:1;" d="M 10.464844 19.144531 C 10.425781 19.328125 10.425781 19.371094 10.425781 20.867188 L 10.425781 22.40625 L 13.460938 22.40625 L 13.460938 20.855469 C 13.460938 19.464844 13.457031 19.285156 13.429688 19.132812 L 13.398438 18.964844 L 11.949219 18.960938 L 10.503906 18.957031 Z M 10.464844 19.144531 "/>
</g>
</svg>
