<?xml version="1.0" encoding="UTF-8"?>
<svg xmlns="http://www.w3.org/2000/svg" xmlns:xlink="http://www.w3.org/1999/xlink" width="24px" height="24px" viewBox="0 0 24 24" version="1.1">
<g id="surface1">
<path style=" stroke:none;fill-rule:nonzero;fill:rgb(96.078431%,3.921569%,3.921569%);fill-opacity:1;" d="M 6.734375 6.886719 C 6.429688 7.253906 6.734375 7.714844 8.601562 9.644531 L 10.804688 11.9375 L 8.601562 14.234375 C 6.734375 16.164062 6.429688 16.621094 6.734375 16.988281 C 6.949219 17.234375 7.195312 17.449219 7.253906 17.449219 C 7.347656 17.449219 8.417969 16.46875 9.671875 15.246094 L 11.9375 13.070312 L 14.234375 15.277344 C 16.164062 17.144531 16.621094 17.449219 16.988281 17.144531 C 17.234375 16.929688 17.449219 16.683594 17.449219 16.621094 C 17.449219 16.53125 16.46875 15.460938 15.246094 14.203125 L 13.070312 11.9375 L 15.246094 9.671875 C 16.46875 8.417969 17.449219 7.347656 17.449219 7.253906 C 17.449219 7.195312 17.234375 6.949219 16.988281 6.734375 C 16.621094 6.429688 16.164062 6.734375 14.234375 8.601562 L 11.9375 10.804688 L 9.671875 8.632812 C 8.417969 7.40625 7.347656 6.429688 7.253906 6.429688 C 7.195312 6.429688 6.949219 6.644531 6.734375 6.886719 Z M 6.734375 6.886719 "/>
</g>
</svg>
